<?xml version="1.0" encoding="UTF-8"?>
<svg version="1.1" xmlns="http://www.w3.org/2000/svg" width="2400" height="556">
<path d="M0 0 C161.04 0 322.08 0 488 0 C483.73851302 8.52297395 476.39790967 14.4969688 469.47412109 20.86254883 C465.69141026 24.35886111 462.22039072 27.90913848 458.93359375 31.87890625 C455.56619387 35.57284188 451.80183724 38.85482399 448.11303711 42.22290039 C445.06251718 45.02622371 442.15194161 47.80684581 439.5 51 C435.77092465 55.49011114 431.42413014 59.28765034 427.12207031 63.21386719 C423.37386339 66.65724401 419.96080749 70.19357483 416.703125 74.109375 C414.61545129 76.42688435 412.34094628 78.43940657 410 80.5 C406.28081271 83.77602621 402.99438183 87.15259955 399.8046875 90.9375 C396.40749377 94.82000712 392.6836377 98.39153858 389 102 C391.01261934 104.608951 393.04314413 107.04314413 395.375 109.375 C400.89016486 114.89016486 405.533208 120.93219945 410 127.3125 C410.495 128.00794922 410.99 128.70339844 411.5 129.41992188 C417.84192562 138.42908964 423.07608749 147.80938115 427.8125 157.75 C428.30169922 158.75160156 428.79089844 159.75320312 429.29492188 160.78515625 C429.99391602 162.24501953 429.99391602 162.24501953 430.70703125 163.734375 C431.33315308 165.03713379 431.33315308 165.03713379 431.97192383 166.36621094 C433 169 433 169 433.51831055 172.26660156 C433.67726807 173.16862305 433.83622559 174.07064453 434 175 C434.66 175.33 435.32 175.66 436 176 C437.1875 178.9375 437.1875 178.9375 438 182 C437.67 182.66 437.34 183.32 437 184 C437.66 184.33 438.32 184.66 439 185 C439.75017652 187.35986704 440.373966 189.6569125 440.9375 192.0625 C441.10934814 192.7747876 441.28119629 193.4870752 441.45825195 194.22094727 C444.63681149 207.65939551 447.10189465 221.09539001 447.23828125 234.93359375 C447.24798447 235.76098557 447.25768768 236.58837738 447.26768494 237.44084167 C447.29250595 240.10644446 447.30520145 242.77179332 447.3125 245.4375 C447.31511841 246.34884705 447.31773682 247.26019409 447.32043457 248.19915771 C447.32512374 263.45939513 446.30476304 278.05137893 443 293 C442.82919922 293.77424316 442.65839844 294.54848633 442.48242188 295.34619141 C441.50150682 299.62663545 440.33525802 303.81407209 439 308 C438.71640625 308.89460938 438.4328125 309.78921875 438.140625 310.7109375 C427.85450209 340.75724391 411.22244434 366.58013635 390 390 C391.29217338 392.84605099 392.64177143 394.88513231 394.866745 397.0736084 C395.45151611 397.65390305 396.03628723 398.23419769 396.63877869 398.83207703 C397.59815086 399.76888054 397.59815086 399.76888054 398.5769043 400.72460938 C399.25179901 401.39176468 399.92669373 402.05891998 400.62203979 402.74629211 C402.08610607 404.19271791 403.55236286 405.63692905 405.02054405 407.07917786 C407.34073048 409.35998146 409.65334789 411.64820292 411.96382141 413.93884277 C418.53306424 420.44999272 425.11187959 426.95134216 431.70532227 433.43798828 C435.73821478 437.40660895 439.75896483 441.38718902 443.77219582 445.37568665 C445.3062555 446.89544574 446.84498163 448.41050897 448.3883419 449.92082214 C450.54078011 452.02778785 452.67751671 454.14953823 454.8112793 456.27539062 C455.77976051 457.21219414 455.77976051 457.21219414 456.76780701 458.16792297 C458.51420593 459.9263916 458.51420593 459.9263916 461 463 C460.20513517 469.73085181 453.00143254 474.32712 448.14453125 478.38671875 C410.52795296 507.99368341 368.6622422 524.13292481 320.63769531 524.35009766 C317.99414403 524.36325404 315.35247666 524.39356424 312.70898438 524.43212891 C267.99894164 525.0790407 226.50109477 511.45341895 191 484 C190.19820312 483.39027344 189.39640625 482.78054688 188.5703125 482.15234375 C167.62926851 465.86114819 150.09221233 446.05437872 137.07666016 422.90966797 C136.35659753 421.63249567 135.62700552 420.3606511 134.88818359 419.09423828 C127.92277616 407.134993 123.32050523 394.5717109 118.91040039 381.47924805 C118.07968459 379.21700109 117.1262241 377.12779574 116 375 C111.22187401 378.9714294 106.9574599 383.0706476 102.93359375 387.80078125 C99.18334647 392.06621402 95.23915393 396.2180857 91 400 C90.34 400 89.68 400 89 400 C89 400.66 89 401.32 89 402 C87.37067018 403.72463025 85.71217938 405.36101385 84 407 C82.89540971 408.11027716 81.79399835 409.22372347 80.6953125 410.33984375 C79.50524857 411.53910243 78.31514371 412.73832049 77.125 413.9375 C76.53847656 414.53240234 75.95195313 415.12730469 75.34765625 415.74023438 C71.87249904 419.23448585 68.29049989 422.4965329 64.52246094 425.67114258 C62.68701564 427.27318375 61.11329038 428.99793944 59.5625 430.875 C55.06223824 436.15221278 50.31493332 441.11025852 44.9375 445.5 C41.87264885 448.10838396 39.39365432 450.9031888 36.78515625 453.953125 C33.00013474 458.29306214 28.93367761 462.26586073 24.5 465.9375 C21.22844161 468.68327222 18.52100427 471.74328965 15.75 474.984375 C14.04999689 476.94241429 12.30906607 478.82997681 10.5 480.6875 C9.9946875 481.20699219 9.489375 481.72648437 8.96875 482.26171875 C6.16567482 484.73665616 3.04281328 486.82656194 0 489 C0 327.63 0 166.26 0 0 Z " fill="#6FB3FE" transform="translate(0,14)"/>
<path d="M0 0 C6.3234998 5.17872829 12.06283446 10.91049084 17.82470703 16.69433594 C19.49271066 18.36768729 21.16597673 20.03564117 22.83984375 21.703125 C27.94355077 26.80431689 32.92466557 31.93080675 37.61328125 37.421875 C39.35172415 39.40027199 41.23015413 41.12518973 43.25 42.8125 C48.22874002 47.0045991 48.22874002 47.0045991 50 49 C50 49.66 50 50.32 50 51 C51.485 51.495 51.485 51.495 53 52 C54.1881697 53.12485692 55.3689755 54.2590442 56.50146484 55.43994141 C58.22197257 57.23108582 59.99270729 58.96395275 61.76953125 60.69921875 C63.11727642 62.02855569 64.46493096 63.35798452 65.8125 64.6875 C66.50537109 65.36361328 67.19824219 66.03972656 67.91210938 66.73632812 C68.8934082 67.70795898 68.8934082 67.70795898 69.89453125 68.69921875 C70.49112549 69.28533936 71.08771973 69.87145996 71.70239258 70.4753418 C73 72 73 72 73 74 C73.99 74.33 74.98 74.66 76 75 C77.72539502 76.62884764 79.35944464 78.28877617 81 80 C82.31736843 81.31155752 83.63795469 82.61988723 84.9609375 83.92578125 C86.43234884 85.3879633 87.9037016 86.8502043 89.375 88.3125 C90.10460937 89.03373047 90.83421875 89.75496094 91.5859375 90.49804688 C95.00266857 93.89952468 98.33374387 97.32252053 101.48046875 100.9765625 C105.42179561 105.55240463 109.65795888 109.80462744 113.9375 114.0625 C114.69740234 114.82626953 115.45730469 115.59003906 116.24023438 116.37695312 C116.99498047 117.13041016 117.74972656 117.88386719 118.52734375 118.66015625 C119.19499756 119.32668213 119.86265137 119.99320801 120.55053711 120.67993164 C122.56292433 122.58601315 124.61069121 124.38376963 126.71708679 126.18231201 C130.74329904 129.69824042 134.37387102 133.46027645 137.97607422 137.40307617 C145.91998583 145.98098664 154.11873878 154.28248953 162.3828125 162.55078125 C163.8964615 164.06765507 165.41004037 165.58459886 166.92355347 167.10160828 C170.05959069 170.24356444 173.19761663 173.38351825 176.33691406 176.5222168 C180.3554996 180.5406996 184.36709167 184.56608973 188.3770771 188.59315205 C191.48431634 191.71149364 194.59607344 194.82529614 197.70913315 197.93782616 C199.1914938 199.42136394 200.67223992 200.90651685 202.15130997 202.39333534 C204.2083009 204.46011643 206.27152122 206.52047518 208.33642578 208.5793457 C208.94008469 209.18862411 209.54374359 209.79790253 210.16569519 210.42564392 C212.52009267 212.76258651 214.62114228 214.77340005 217.47839355 216.48236084 C221.16730652 218.70254821 223.97435512 221.67111971 227.00927734 224.70288086 C227.69436371 225.37964371 228.37945007 226.05640656 229.08529663 226.75367737 C231.34096386 228.98530849 233.58895308 231.22447234 235.8359375 233.46484375 C237.40052776 235.02046776 238.9651956 236.57601375 240.52993774 238.13148499 C243.80347075 241.38854632 247.07260033 244.64995988 250.33935547 247.91381836 C254.53444739 252.10350713 258.74548343 256.27677445 262.96059227 260.446311 C266.19451573 263.65056977 269.41720455 266.86594629 272.63682938 270.08456612 C274.18536743 271.62888621 275.7380448 273.16906686 277.29484177 274.70506096 C279.46419879 276.8477059 281.61735166 279.00542171 283.76708984 281.16772461 C284.74252747 282.1209108 284.74252747 282.1209108 285.7376709 283.09335327 C287.49642944 284.88169861 287.49642944 284.88169861 290 288 C289.21000042 294.72933009 281.99894094 299.32920258 277.14453125 303.38671875 C239.52795296 332.99368341 197.6622422 349.13292481 149.63769531 349.35009766 C146.99414403 349.36325404 144.35247666 349.39356424 141.70898438 349.43212891 C96.99894164 350.0790407 55.50109477 336.45341895 20 309 C18.79730469 308.08541016 18.79730469 308.08541016 17.5703125 307.15234375 C-3.37073149 290.86114819 -20.90778767 271.05437872 -33.92333984 247.90966797 C-34.64340247 246.63249567 -35.37299448 245.3606511 -36.11181641 244.09423828 C-44.28182332 230.06675783 -52.43658853 213.29856461 -54 197 C-54.74394652 190.78804659 -55.73622726 184.67828901 -56.89453125 178.53125 C-61.1823993 155.05625524 -60.95151278 128.33502982 -56 105 C-55.72591309 103.63536621 -55.72591309 103.63536621 -55.44628906 102.24316406 C-47.21316964 62.21316964 -47.21316964 62.21316964 -37 52 C-36.27488348 50.31565792 -35.55258432 48.62997418 -34.85253906 46.93505859 C-33.44663493 43.74399441 -31.67894191 40.79191627 -29.875 37.8125 C-29.48248047 37.16321533 -29.08996094 36.51393066 -28.68554688 35.8449707 C-22.44911699 25.69336584 -15.05759377 16.74490214 -7 8 C-4.65250227 5.34555505 -2.32620366 2.67308998 0 0 Z " fill="#7A00F9" transform="translate(171,189)"/>
<path d="M0 0 C0.90878906 0.48339844 0.90878906 0.48339844 1.8359375 0.9765625 C28.32008397 15.20167174 53.75450987 36.6792934 71 61.3125 C71.495 62.00794922 71.99 62.70339844 72.5 63.41992188 C78.84192562 72.42908964 84.07608749 81.80938115 88.8125 91.75 C89.30169922 92.75160156 89.79089844 93.75320312 90.29492188 94.78515625 C90.76091797 95.75839844 91.22691406 96.73164063 91.70703125 97.734375 C92.1244458 98.60288086 92.54186035 99.47138672 92.97192383 100.36621094 C94 103 94 103 94.51831055 106.26660156 C94.67726807 107.16862305 94.83622559 108.07064453 95 109 C95.66 109.33 96.32 109.66 97 110 C98.1875 112.9375 98.1875 112.9375 99 116 C98.67 116.66 98.34 117.32 98 118 C98.66 118.33 99.32 118.66 100 119 C100.75017652 121.35986704 101.373966 123.6569125 101.9375 126.0625 C102.10934814 126.7747876 102.28119629 127.4870752 102.45825195 128.22094727 C105.63681149 141.65939551 108.10189465 155.09539001 108.23828125 168.93359375 C108.24798447 169.76098557 108.25768768 170.58837738 108.26768494 171.44084167 C108.29250595 174.10644446 108.30520145 176.77179332 108.3125 179.4375 C108.31511841 180.34884705 108.31773682 181.26019409 108.32043457 182.19915771 C108.32512374 197.45939513 107.30476304 212.05137893 104 227 C103.82919922 227.77424316 103.65839844 228.54848633 103.48242188 229.34619141 C102.50150682 233.62663545 101.33525802 237.81407209 100 242 C99.71640625 242.89460938 99.4328125 243.78921875 99.140625 244.7109375 C88.68690782 275.24679557 71.71317643 301.33623088 50 325 C46.63699717 324.41540847 45.00118186 323.37492304 42.60490417 320.97239685 C41.95321762 320.32627945 41.30153107 319.68016205 40.63009644 319.01446533 C39.92611725 318.30127136 39.22213806 317.58807739 38.49682617 316.85327148 C37.74670761 316.1051973 36.99658905 315.35712311 36.22373962 314.58638 C33.73949491 312.10514915 31.26617764 309.61332114 28.79296875 307.12109375 C27.06725935 305.39232604 25.34095796 303.66414908 23.61408997 301.9365387 C19.99066299 298.30850388 16.37220668 294.67560915 12.75756836 291.03881836 C8.137673 286.3907461 3.509245 281.7512941 -1.12251759 277.11505032 C-5.54968023 272.68271173 -9.97214919 268.24570121 -14.39453125 263.80859375 C-15.65298827 262.54731565 -15.65298827 262.54731565 -16.93686867 261.26055717 C-19.33005996 258.86043882 -21.71984907 256.45698472 -24.10864258 254.05249023 C-24.80654907 253.35346588 -25.50445557 252.65444153 -26.22351074 251.93423462 C-30.1133231 248.01077609 -33.82765578 243.99080103 -37.4139204 239.78733921 C-40.05609024 236.80990116 -42.99036616 234.16984115 -45.9375 231.5 C-51.56975827 226.3166692 -57.08268456 221.03277679 -62.5 215.625 C-63.14573975 214.98369141 -63.79147949 214.34238281 -64.45678711 213.68164062 C-68.24372067 209.88343789 -71.81939095 205.95900093 -75.32568359 201.90136719 C-77.79730129 199.09457823 -80.40830583 196.44560124 -83.0625 193.8125 C-83.55298828 193.31814453 -84.04347656 192.82378906 -84.54882812 192.31445312 C-86.99895566 189.87076482 -89.48747231 187.55718715 -92.16796875 185.3671875 C-94.48056647 183.43417478 -96.34583532 181.62255241 -98.25 179.3125 C-103.41537308 173.26523395 -108.94796828 167.32992225 -115.1875 162.375 C-118.23057124 159.8052954 -120.6415812 156.99836057 -123.21484375 153.97265625 C-125.35461203 151.60814207 -127.69887742 149.65708614 -130.15917969 147.63912964 C-132.0227272 145.97976292 -133.58876331 144.24453342 -135.19921875 142.34033203 C-139.0512981 137.88379325 -143.14281679 133.71279849 -147.3125 129.5546875 C-148.08505127 128.7811795 -148.85760254 128.00767151 -149.65356445 127.21072388 C-151.27595307 125.5876592 -152.89958739 123.96583882 -154.52441406 122.34521484 C-156.9965939 119.87839871 -159.46338051 117.40627997 -161.9296875 114.93359375 C-163.51530443 113.34863756 -165.1012315 111.76399157 -166.6875 110.1796875 C-167.78155151 109.08259964 -167.78155151 109.08259964 -168.89770508 107.96334839 C-172.66021685 104.21783722 -176.48038714 100.62870209 -180.56529236 97.23588562 C-182.43531757 95.62500881 -184.00013244 93.84444988 -185.5625 91.9375 C-188.47392861 88.5115236 -191.50103401 85.81438569 -195 83 C-198.29034244 79.88751391 -201.29798251 76.56334664 -204.3125 73.1875 C-208.39140249 68.6267305 -212.63516744 64.28498806 -217 60 C-218.66801129 58.33467905 -220.33459548 56.66792786 -222 55 C-223.2375 53.7625 -223.2375 53.7625 -224.5 52.5 C-232 45 -232 45 -234.66796875 42.30078125 C-236.68460958 40.31116408 -238.68812837 38.62687263 -241 37 C-239.40701733 32.91617171 -236.48474042 30.32250506 -233.3125 27.4375 C-232.73870605 26.91373779 -232.16491211 26.38997559 -231.57373047 25.8503418 C-201.56115188 -1.04451945 -163.47010432 -16.67069911 -124 -23 C-122.80890625 -23.19464844 -121.6178125 -23.38929687 -120.390625 -23.58984375 C-79.06722561 -28.42326079 -36.4832379 -19.50736394 0 0 Z " fill="#FE6D2E" transform="translate(339,80)"/>
<path d="M0 0 C149.18918919 0 149.18918919 0 190.8046875 40.74609375 C211.27230477 62.20202275 221.27361815 90.00548309 225 119 C225.13148438 119.97195312 225.26296875 120.94390625 225.3984375 121.9453125 C229.38195318 158.87357946 222.8028457 200.61994707 199.33203125 230.47265625 C196.66186049 233.74783199 193.86630034 236.89595626 191 240 C190.16339844 240.9075 189.32679688 241.815 188.46484375 242.75 C173.05912933 258.76608345 152.15000149 269.89435406 130.8125 275.6875 C130.11987061 275.87795898 129.42724121 276.06841797 128.71362305 276.26464844 C86.96397123 286.912273 41.79840555 281 0 281 C0 188.27 0 95.54 0 0 Z M45 44 C45 107.69 45 171.38 45 237 C79.94686549 238.21910296 79.94686549 238.21910296 114.5625 232.625 C115.31225098 232.40440918 116.06200195 232.18381836 116.83447266 231.95654297 C122.10275058 230.36813478 127.14114537 228.60872085 132 226 C132.90492188 225.53207031 133.80984375 225.06414062 134.7421875 224.58203125 C156.40272016 212.73906469 170.18270386 193.9681497 177.2109375 170.453125 C183.54126337 142.75011477 182.00630382 110.90099187 166.85205078 86.12304688 C164.46081459 82.55379739 161.78393427 79.26627317 159 76 C158.51144531 75.35160156 158.02289062 74.70320313 157.51953125 74.03515625 C151.0589708 65.68000329 141.37069356 59.63654108 132 55 C131.195625 54.58105469 130.39125 54.16210938 129.5625 53.73046875 C103.57178007 40.92849212 72.83500297 44 45 44 Z " fill="#000000" transform="translate(1600,134)"/>
<path d="M0 0 C55.77 0 111.54 0 169 0 C169 14.52 169 29.04 169 44 C128.41 44 87.82 44 46 44 C46 67.43 46 90.86 46 115 C80.98 115 115.96 115 152 115 C152 129.85 152 144.7 152 160 C117.02 160 82.04 160 46 160 C46 185.41 46 210.82 46 237 C86.59 237 127.18 237 169 237 C169 251.52 169 266.04 169 281 C113.23 281 57.46 281 0 281 C0 188.27 0 95.54 0 0 Z " fill="#000000" transform="translate(588,134)"/>
<path d="M0 0 C3.65509628 3.05392178 7.02693589 6.34327906 10.37451172 9.72900391 C11.17630859 10.52048828 11.97810547 11.31197266 12.80419922 12.12744141 C33.10364191 33.26976753 39.84631036 62.30156833 39.60498047 90.77197266 C39.20661482 106.89690081 39.20661482 106.89690081 35.37451172 110.72900391 C33.36256625 110.83801048 31.34675845 110.8759119 29.33189392 110.88722229 C27.36091988 110.90190552 27.36091988 110.90190552 25.35012817 110.91688538 C23.88031042 110.92279035 22.41049229 110.92860075 20.94067383 110.93432617 C19.40359734 110.94389917 17.86652352 110.9539089 16.32945251 110.96432495 C12.1437118 110.99144279 7.95795973 111.01241498 3.77217937 111.03232694 C-0.59741252 111.05414421 -4.96696913 111.08155366 -9.33653259 111.10838318 C-17.61673318 111.15836784 -25.89695328 111.20328517 -34.17719215 111.24640554 C-43.60148492 111.29572869 -53.02574231 111.35066502 -62.45000088 111.40608513 C-81.84179719 111.51999377 -101.23362686 111.62681337 -120.62548828 111.72900391 C-119.72645523 114.25372209 -118.8160517 116.77335957 -117.89892578 119.29150391 C-117.64941162 119.99597656 -117.39989746 120.70044922 -117.14282227 121.42626953 C-111.40536924 137.06240525 -99.59139412 149.55963728 -84.62548828 156.72900391 C-67.88609777 163.97878049 -48.67533551 164.10409021 -31.62548828 157.72900391 C-21.3480859 153.59615026 -12.81150702 148.22129224 -4.62548828 140.72900391 C-2.98169763 142.13307509 -1.33873371 143.53812447 0.30029297 144.94775391 C1.68911034 146.14041063 3.08239645 147.32788227 4.47998047 148.51025391 C8.21370914 151.70458838 11.32339345 154.86425409 14.37451172 158.72900391 C15.4412733 159.64450825 16.52556109 160.5398991 17.62451172 161.41650391 C18.98576172 162.56119141 18.98576172 162.56119141 20.37451172 163.72900391 C20.37451172 164.38900391 20.37451172 165.04900391 20.37451172 165.72900391 C21.69451172 166.38900391 23.01451172 167.04900391 24.37451172 167.72900391 C23.10014932 175.32487455 15.09987943 180.10040919 9.24951172 184.29150391 C-16.98614515 202.12429489 -49.69628036 209.16628621 -80.93798828 203.22900391 C-95.1828398 200.19078627 -108.81290456 194.24922899 -120.62548828 185.72900391 C-121.42986328 185.16826172 -122.23423828 184.60751953 -123.06298828 184.02978516 C-127.12711822 181.11574754 -127.12711822 181.11574754 -128.62548828 179.72900391 C-128.62548828 179.06900391 -128.62548828 178.40900391 -128.62548828 177.72900391 C-129.20041016 177.48537109 -129.77533203 177.24173828 -130.36767578 176.99072266 C-146.21665234 168.13394164 -156.01933786 143.92010751 -160.93798828 127.41650391 C-170.10727924 92.8161453 -165.11358314 60.57882645 -147.94189453 29.70166016 C-133.89658528 6.22544781 -110.08938366 -9.1782527 -84.08251953 -16.23193359 C-55.99020607 -22.57817643 -23.13990906 -18.0934765 0 0 Z M-104.62548828 42.72900391 C-105.24810547 43.33099609 -105.87072266 43.93298828 -106.51220703 44.55322266 C-110.49159234 48.67568699 -113.2322663 53.28303981 -115.93798828 58.29150391 C-116.27588379 58.91686035 -116.6137793 59.5422168 -116.96191406 60.18652344 C-119.74618315 65.55346643 -121.62548828 70.59872893 -121.62548828 76.72900391 C-82.35548828 76.72900391 -43.08548828 76.72900391 -2.62548828 76.72900391 C-4.65026714 60.53077305 -11.15548821 45.68860515 -23.62548828 34.72900391 C-48.84986489 16.38892511 -83.12410279 20.60775865 -104.62548828 42.72900391 Z " fill="#000000" transform="translate(1153.62548828125,217.27099609375)"/>
<path d="M0 0 C20.13328643 19.00096168 26.34271939 46.88917109 27.26969147 73.73468781 C27.42526622 81.90076692 27.39726292 90.06742034 27.36294413 98.23451471 C27.3502594 101.77383787 27.34925254 105.31316616 27.34689331 108.85250854 C27.34072978 115.52430951 27.32439006 122.19604325 27.30419433 128.8678149 C27.28167358 136.47630052 27.27080165 144.08478972 27.26080346 151.69330049 C27.24001791 167.3164123 27.20340764 182.93943177 27.16015625 198.5625 C12.97015625 198.5625 -1.21984375 198.5625 -15.83984375 198.5625 C-15.85966309 194.84395752 -15.87948242 191.12541504 -15.89990234 187.29418945 C-15.96695622 174.97677569 -16.04449659 162.65944639 -16.12737083 150.34212971 C-16.17733934 142.87776519 -16.22378302 135.41341079 -16.26171875 127.94897461 C-16.29482044 121.43751511 -16.33474964 114.926138 -16.38263381 108.41476983 C-16.40771965 104.97201111 -16.42955204 101.52930578 -16.44318771 98.08648109 C-16.46019024 94.22851548 -16.48925842 90.37080828 -16.52099609 86.51293945 C-16.52315628 85.39083572 -16.52531647 84.26873199 -16.52754211 83.11262512 C-16.68474733 68.04985518 -18.8738419 53.03312798 -27.83984375 40.5625 C-28.39671875 39.69625 -28.95359375 38.83 -29.52734375 37.9375 C-37.87296268 29.3663238 -48.58615805 26.5249417 -60.1887207 26.21118164 C-72.41651826 26.10195461 -82.46868729 27.72741403 -92.83984375 34.5625 C-93.74669922 35.13871094 -93.74669922 35.13871094 -94.671875 35.7265625 C-104.57145125 43.01157798 -109.45207149 56.47950382 -111.51501465 68.16659546 C-113.46873122 82.57699888 -112.96939869 97.24435212 -112.9375 111.74609375 C-112.93563149 114.25814282 -112.93420963 116.77019226 -112.93321228 119.28224182 C-112.92980698 125.17850999 -112.92195611 131.07475862 -112.91186279 136.97101885 C-112.89950028 144.35632687 -112.89419884 151.74163737 -112.88867188 159.12695312 C-112.87799477 172.27214689 -112.86042614 185.41731801 -112.83984375 198.5625 C-127.35984375 198.5625 -141.87984375 198.5625 -156.83984375 198.5625 C-156.86238789 171.45993818 -156.88082124 144.35738391 -156.89165592 117.2548151 C-156.89681961 104.67158231 -156.90386369 92.08835575 -156.9152832 79.50512695 C-156.92522782 68.54189899 -156.93169665 57.57867552 -156.93393224 46.61544317 C-156.93523973 40.80661711 -156.93832796 34.99780395 -156.94557381 29.18898201 C-156.95233053 23.72835248 -156.95446143 18.26774124 -156.95295143 12.80710793 C-156.95322792 10.796668 -156.95523509 8.7862275 -156.95904922 6.77579117 C-156.96398104 4.04358415 -156.96284394 1.31144733 -156.96009827 -1.42076111 C-156.96301111 -2.22716551 -156.96592395 -3.03356992 -156.96892506 -3.86441082 C-156.95396496 -9.32337879 -156.95396496 -9.32337879 -155.83984375 -10.4375 C-152.88279054 -10.52618299 -149.94919319 -10.55270296 -146.9921875 -10.53515625 C-145.66254723 -10.53303383 -145.66254723 -10.53303383 -144.30604553 -10.53086853 C-141.46311121 -10.52525215 -138.62025444 -10.51269691 -135.77734375 -10.5 C-133.85481884 -10.49498711 -131.93229271 -10.49042384 -130.00976562 -10.48632812 C-125.28640411 -10.47612648 -120.56321117 -10.45655437 -115.83984375 -10.4375 C-115.17984375 -3.8375 -114.51984375 2.7625 -113.83984375 9.5625 C-111.67684229 9.79684221 -111.67684229 9.79684221 -110.1328125 7.875 C-109.43800781 7.111875 -108.74320313 6.34875 -108.02734375 5.5625 C-97.17331866 -5.46463553 -81.20356386 -13.14928637 -65.83984375 -15.4375 C-65.16308594 -15.54707031 -64.48632812 -15.65664062 -63.7890625 -15.76953125 C-41.33325558 -18.84848101 -17.49810138 -15.01900311 0 0 Z " fill="#000000" transform="translate(1385.83984375,216.4375)"/>
<path d="M0 0 C64.68 0 129.36 0 196 0 C196 14.52 196 29.04 196 44 C171.25 44 146.5 44 121 44 C121 122.21 121 200.42 121 281 C105.82 281 90.64 281 75 281 C75 202.79 75 124.58 75 44 C50.25 44 25.5 44 0 44 C0 29.48 0 14.96 0 0 Z " fill="#000000" transform="translate(1833,134)"/>
<path d="M0 0 C14.85 0 29.7 0 45 0 C45 78.21 45 156.42 45 237 C86.58 237 128.16 237 171 237 C171 251.52 171 266.04 171 281 C114.57 281 58.14 281 0 281 C0 188.27 0 95.54 0 0 Z " fill="#000000" transform="translate(2063,134)"/>
<path d="M0 0 C15.84 0 31.68 0 48 0 C57.15189964 20.78687282 66.28935443 41.57435464 75.20947266 62.46142578 C75.8166934 63.88315441 76.42395311 65.3048664 77.03125 66.7265625 C77.33719086 67.44280792 77.64313171 68.15905334 77.95834351 68.89700317 C82.42277675 79.3394751 86.93279737 89.76235507 91.4375 100.1875 C91.86698944 101.18157867 92.29647888 102.17565735 92.73898315 103.19985962 C95.15866629 108.80019002 97.579019 114.40023053 100 120 C105.82414777 107.76642887 111.24411775 95.37100725 116.625 82.9375 C117.51675268 80.8809465 118.40868161 78.82446942 119.30078125 76.76806641 C121.06396649 72.70280455 122.82599759 68.63704588 124.58691406 64.57080078 C126.64631233 59.81552355 128.70895078 55.06166359 130.7734375 50.30859375 C135.01260101 40.54494193 139.24602386 30.77920178 143.421875 20.98828125 C143.70293091 20.32989258 143.98398682 19.67150391 144.27355957 18.99316406 C145.62180357 15.83452178 146.96745676 12.67485521 148.30859375 9.51318359 C148.77910156 8.4092627 149.24960937 7.3053418 149.734375 6.16796875 C150.14913086 5.19110107 150.56388672 4.2142334 150.99121094 3.20776367 C152 1 152 1 153 0 C154.5348297 -0.09319449 156.07392082 -0.117458 157.61157227 -0.11352539 C158.59251358 -0.11344986 159.5734549 -0.11337433 160.5841217 -0.11329651 C161.6507756 -0.10813522 162.7174295 -0.10297394 163.81640625 -0.09765625 C165.44569313 -0.09553383 165.44569313 -0.09553383 167.1078949 -0.09336853 C170.59279075 -0.08775048 174.07762342 -0.07519492 177.5625 -0.0625 C179.91861887 -0.05748733 182.27473874 -0.05292402 184.63085938 -0.04882812 C190.42059464 -0.03777519 196.21029281 -0.02101951 202 0 C196.26304042 12.80633431 190.45619671 25.57760066 184.5625 38.3125 C183.78309733 39.99864902 183.00380323 41.68484822 182.22460938 43.37109375 C180.61516038 46.85387008 179.00525765 50.3364361 177.39501953 53.81884766 C173.96480252 61.23822213 170.54033331 68.66024856 167.11566162 76.08218384 C165.24527466 80.13560985 163.37460824 84.18890687 161.50390625 88.2421875 C161.13281738 89.04624527 160.76172852 89.85030304 160.37939453 90.6787262 C158.12000017 95.57405001 155.85992428 100.46905857 153.59933472 105.36383057 C146.23569676 121.30811231 138.87763407 137.25486401 131.5491333 153.21533203 C129.46337395 157.75743129 127.3764173 162.29898058 125.28942871 166.84051514 C123.37192178 171.01339009 121.45521216 175.186629 119.53955078 179.36035156 C117.45339309 183.90498847 115.36451035 188.44836472 113.27392578 192.9909668 C112.47174178 194.73517542 111.67045955 196.47979908 110.87011719 198.22485352 C109.76082898 200.64318592 108.64837606 203.06003794 107.53515625 205.4765625 C107.04107018 206.55661057 107.04107018 206.55661057 106.53700256 207.65847778 C105.17717111 210.60286629 103.8034273 213.29485906 102 216 C100.21020508 215.8984375 100.21020508 215.8984375 98 215 C96.67321292 212.86514364 95.64998477 210.90457229 94.63671875 208.625 C94.32834579 207.96220535 94.01997284 207.29941071 93.70225525 206.61653137 C92.683309 204.41719099 91.68549429 202.20891725 90.6875 200 C89.97371146 198.44825102 89.25868618 196.89707038 88.54248047 195.34643555 C86.6978243 191.34254925 84.87100671 187.33081747 83.05059814 183.31585693 C82.06226306 181.13724785 81.07077957 178.96011232 80.07763672 176.78369141 C77.6408309 171.44353885 75.20730887 166.10194076 72.7878418 160.75390625 C67.91211542 149.97764826 62.96615414 139.23485141 58 128.5 C52.47759588 116.56095497 46.98942547 104.60774552 41.5625 92.625 C35.94317026 80.21805539 30.23706569 67.85291142 24.5 55.5 C18.7419275 43.09572827 12.99070889 30.68846088 7.31103516 18.24804688 C6.6497546 16.80066705 5.98717407 15.35388039 5.32324219 13.90771484 C4.41620212 11.93103458 3.5140171 9.95221549 2.61328125 7.97265625 C2.10579346 6.86156494 1.59830566 5.75047363 1.07543945 4.60571289 C0 2 0 2 0 0 Z " fill="#000000" transform="translate(782,206)"/>
<path d="M0 0 C13.2 0 26.4 0 40 0 C40 13.53 40 27.06 40 41 C56.5 41 73 41 90 41 C90 54.53 90 68.06 90 82 C73.5 82 57 82 40 82 C40.0617746 101.28237082 40.0617746 101.28237082 40.16015625 120.56445312 C40.20842489 128.43400263 40.25249476 136.30341257 40.27099609 144.1730957 C40.28618974 150.52101685 40.32068431 156.86857182 40.36830902 163.21632957 C40.38309473 165.63265988 40.39103939 168.04904247 40.39188385 170.46541786 C40.39426362 173.86185938 40.42142632 177.25729718 40.45410156 180.65356445 C40.4490712 181.64259766 40.44404083 182.63163086 40.43885803 183.65063477 C40.55947637 191.80592716 42.61908822 198.85544986 46.6875 205.9375 C52.46689294 211.0920937 58.67483992 212.64473842 66.31640625 212.40625 C74.32065111 211.52349129 82.13432288 209.70068694 90 208 C90 221.2 90 234.4 90 248 C70.57641901 254.474527 46.47794311 258.36239301 27 250 C21.59394251 247.11940003 17.06303043 243.5976397 13 239 C12.16855469 238.06414062 12.16855469 238.06414062 11.3203125 237.109375 C-0.75094895 222.70675405 -3.17600293 203.72215873 -3.11352539 185.53515625 C-3.11367142 184.41232742 -3.11381744 183.2894986 -3.1139679 182.13264465 C-3.11327443 178.44257639 -3.1055086 174.75255938 -3.09765625 171.0625 C-3.09579006 168.49560575 -3.0943671 165.92871114 -3.09336853 163.36181641 C-3.08994799 157.3094844 -3.08207642 151.25717337 -3.07201904 145.20484924 C-3.06081217 138.30999697 -3.05533596 131.41514378 -3.05032361 124.52028465 C-3.03989247 110.34684507 -3.02156537 96.17342692 -3 82 C-12.24 82 -21.48 82 -31 82 C-31 69.13 -31 56.26 -31 43 C-26.38 42.67 -21.76 42.34 -17 42 C-10.98526375 40.23346081 -10.98526375 40.23346081 -7 36 C-6.34 36 -5.68 36 -5 36 C-4.51490207 34.62708132 -4.03724487 33.25153297 -3.5625 31.875 C-3.29566406 31.10929687 -3.02882813 30.34359375 -2.75390625 29.5546875 C-0.87041712 23.17229428 -0.71075477 16.72908256 -0.4375 10.125 C-0.293125 6.78375 -0.14875 3.4425 0 0 Z " fill="#000000" transform="translate(1476,165)"/>
</svg>
